<svg xmlns="http://www.w3.org/2000/svg" width="113.556" height="93.529" viewBox="0 0 113.556 93.529">
  <g id="コーヒーブレイクアイコン" transform="translate(0 -45.148)">
    <path id="パス_149" data-name="パス 149" d="M113.347,71.99a15.286,15.286,0,0,0-5.228-9.466,14.739,14.739,0,0,0-9.471-3.386,15.488,15.488,0,0,0-4.679.729c-2.836-9.811-17.637-14.719-42.416-14.719-28.446,0-43.747,6.466-42.886,19.4a83.368,83.368,0,0,0,8.508,30.228A35.164,35.164,0,0,0,10.1,98.213a25.239,25.239,0,0,0-6.569,5.966,17.314,17.314,0,0,0-3.41,7.992A12.314,12.314,0,0,0,0,113.892a13.443,13.443,0,0,0,1.1,5.235,20.772,20.772,0,0,0,6.253,7.865c4.3,3.479,10.229,6.35,17.739,8.409a103.9,103.9,0,0,0,27.245,3.275c16.129-.009,28.767-2.8,37.68-7.109a32.855,32.855,0,0,0,10.548-7.626,18,18,0,0,0,3.009-4.693,13.275,13.275,0,0,0,1.109-5.228,11.581,11.581,0,0,0-.058-1.176,16.945,16.945,0,0,0-3.2-8.237A27.384,27.384,0,0,0,90.74,96.121a37.892,37.892,0,0,0-4.575-1.789c.265-.522.526-1.046.776-1.57a18.557,18.557,0,0,0,6.74,1.28,19.1,19.1,0,0,0,7.686-1.637,21.037,21.037,0,0,0,8.659-7.089,18.653,18.653,0,0,0,3.531-10.7A16.515,16.515,0,0,0,113.347,71.99ZM51.553,54.2c16.9,0,30.6,3.477,30.6,7.76s-13.7,7.758-30.6,7.758-30.6-3.473-30.6-7.758S34.653,54.2,51.553,54.2Zm39.023,50.7a17.321,17.321,0,0,1,4.535,4.214A9.233,9.233,0,0,1,96.9,113.6a4.168,4.168,0,0,1,.022.426,5.445,5.445,0,0,1-.484,2.174,13.14,13.14,0,0,1-4.017,4.822c-3.185,2.568-8.215,5.1-14.946,6.917a96.519,96.519,0,0,1-25.142,2.986c-15.291.009-26.879-2.71-34.334-6.364a25.02,25.02,0,0,1-8.035-5.768,10.273,10.273,0,0,1-1.719-2.674,5.716,5.716,0,0,1-.487-2.221,4.7,4.7,0,0,1,.045-.642,9.593,9.593,0,0,1,1.933-4.414,20.082,20.082,0,0,1,7.689-5.806,30.159,30.159,0,0,1,3.848-1.421,48.443,48.443,0,0,0,4.787,5.871,41.354,41.354,0,0,0,5.089,4.548c-1.684.986-2.655,2.094-2.655,3.266,0,4.106,11.578,7.436,25.861,7.436s25.86-3.33,25.86-7.436c0-1.854-2.375-3.544-6.276-4.847,1.006-.874,2.038-1.856,3.111-2.967a48.561,48.561,0,0,0,5.054-6.256A28.421,28.421,0,0,1,90.576,104.9Zm11.906-27.129a10.531,10.531,0,0,1-3.62,4.24A9.247,9.247,0,0,1,93.68,83.7a8.3,8.3,0,0,1-2.966-.582,88.488,88.488,0,0,0,2.618-10.309,7.663,7.663,0,0,1,2.357-2.438,5.569,5.569,0,0,1,2.96-.888,4.408,4.408,0,0,1,2.848.988,4.937,4.937,0,0,1,1.639,3.154,6.391,6.391,0,0,1,.076.988A7.629,7.629,0,0,1,102.482,77.773Z" transform="translate(0 0)" fill="#a5a5a5"/>
  </g>
</svg>
