<svg xmlns="http://www.w3.org/2000/svg" width="38.215" height="38.215" viewBox="0 0 38.215 38.215">
  <path id="calender" d="M40.465,10.439A5.459,5.459,0,0,0,35.006,4.98H33.641V3.653a1.392,1.392,0,0,0-1.3-1.4,1.365,1.365,0,0,0-1.43,1.363V4.98H11.8V3.653a1.392,1.392,0,0,0-1.3-1.4A1.365,1.365,0,0,0,9.074,3.615V4.98H7.709A5.459,5.459,0,0,0,2.25,10.439v1.024a.341.341,0,0,0,.341.341H40.124a.341.341,0,0,0,.341-.341ZM2.25,35.006a5.459,5.459,0,0,0,5.459,5.459h27.3a5.459,5.459,0,0,0,5.459-5.459V14.789a.256.256,0,0,0-.256-.256H2.506a.256.256,0,0,0-.256.256ZM31.594,17.263a2.047,2.047,0,1,1-2.047,2.047A2.047,2.047,0,0,1,31.594,17.263Zm0,6.824a2.047,2.047,0,1,1-2.047,2.047A2.047,2.047,0,0,1,31.594,24.087ZM24.77,17.263a2.047,2.047,0,1,1-2.047,2.047A2.047,2.047,0,0,1,24.77,17.263Zm0,6.824a2.047,2.047,0,1,1-2.047,2.047A2.047,2.047,0,0,1,24.77,24.087Zm0,6.824a2.047,2.047,0,1,1-2.047,2.047,2.047,2.047,0,0,1,2.047-2.047Zm-6.824-6.824A2.047,2.047,0,1,1,15.9,26.134,2.047,2.047,0,0,1,17.945,24.087Zm0,6.824A2.047,2.047,0,1,1,15.9,32.958a2.047,2.047,0,0,1,2.047-2.047Zm-6.824-6.824a2.047,2.047,0,1,1-2.047,2.047A2.047,2.047,0,0,1,11.121,24.087Zm0,6.824a2.047,2.047,0,1,1-2.047,2.047,2.047,2.047,0,0,1,2.047-2.047Z" transform="translate(-2.25 -2.25)" fill="#a5a5a5"/>
</svg>
