<svg xmlns="http://www.w3.org/2000/svg" width="25" height="25" viewBox="0 0 25 25">
  <path id="Icon_ion-calendar" data-name="Icon ion-calendar" d="M27.25,7.607a3.571,3.571,0,0,0-3.571-3.571h-.893V3.168a.91.91,0,0,0-.85-.917A.893.893,0,0,0,21,3.143v.893H8.5V3.168a.91.91,0,0,0-.85-.917.893.893,0,0,0-.936.892v.893H5.821A3.571,3.571,0,0,0,2.25,7.607v.67a.223.223,0,0,0,.223.223H27.027a.223.223,0,0,0,.223-.223Zm-25,16.071A3.571,3.571,0,0,0,5.821,27.25H23.679a3.571,3.571,0,0,0,3.571-3.571V10.453a.167.167,0,0,0-.167-.167H2.417a.167.167,0,0,0-.167.167Zm19.2-11.607a1.339,1.339,0,1,1-1.339,1.339A1.339,1.339,0,0,1,21.446,12.071Zm0,4.464a1.339,1.339,0,1,1-1.339,1.339A1.339,1.339,0,0,1,21.446,16.536Zm-4.464-4.464a1.339,1.339,0,1,1-1.339,1.339A1.339,1.339,0,0,1,16.982,12.071Zm0,4.464a1.339,1.339,0,1,1-1.339,1.339A1.339,1.339,0,0,1,16.982,16.536Zm0,4.464a1.339,1.339,0,1,1-1.339,1.339A1.339,1.339,0,0,1,16.982,21Zm-4.464-4.464a1.339,1.339,0,1,1-1.339,1.339A1.339,1.339,0,0,1,12.518,16.536Zm0,4.464a1.339,1.339,0,1,1-1.339,1.339A1.339,1.339,0,0,1,12.518,21ZM8.054,16.536a1.339,1.339,0,1,1-1.339,1.339A1.339,1.339,0,0,1,8.054,16.536Zm0,4.464a1.339,1.339,0,1,1-1.339,1.339A1.339,1.339,0,0,1,8.054,21Z" transform="translate(-2.25 -2.25)" fill="#a5a5a5"/>
</svg>
