<svg xmlns="http://www.w3.org/2000/svg" width="43.5" height="40.232" viewBox="0 0 43.5 40.232">
  <g id="Icon_akar-chat-bubble" data-name="Icon akar-chat-bubble" transform="translate(-1.5 -3)" opacity="0.4">
    <path id="パス_47" data-name="パス 47" d="M27.3,36.9c7.636,0,11.455,0,13.827-2.373S43.5,28.336,43.5,20.7s0-11.455-2.373-13.827S34.936,4.5,27.3,4.5H19.2c-7.636,0-11.455,0-13.827,2.373S3,13.064,3,20.7,3,32.155,5.373,34.527c1.322,1.324,3.094,1.91,5.727,2.167" transform="translate(0)" fill="none" stroke="#fff" stroke-linecap="round" stroke-linejoin="round" stroke-width="3"/>
    <path id="パス_48" data-name="パス 48" d="M25.039,29.288a17.812,17.812,0,0,0-7.778,2.319c-4.046,2.1-6.069,3.151-7.065,2.481s-.808-2.744-.429-6.893l.085-.944" transform="translate(2.261 7.613)" fill="none" stroke="#fff" stroke-linecap="round" stroke-width="3"/>
  </g>
</svg>
