<svg id="contact" xmlns="http://www.w3.org/2000/svg" width="42.808" height="42.808" viewBox="0 0 42.808 42.808">
  <path id="パス_192" data-name="パス 192" d="M36.538,6.269A21.4,21.4,0,1,0,42.808,21.4,21.347,21.347,0,0,0,36.538,6.269ZM33.4,9.408a16.964,16.964,0,1,1-12-4.969A16.9,16.9,0,0,1,33.4,9.408Z" transform="translate(0 0)" fill="#4b4b4b"/>
  <path id="パス_193" data-name="パス 193" d="M219.17,329.326a2.151,2.151,0,1,0,2.15,2.151A2.151,2.151,0,0,0,219.17,329.326Z" transform="translate(-198.874 -301.791)" fill="#4b4b4b"/>
  <path id="パス_194" data-name="パス 194" d="M181.112,134.8l1.464,1.174a.791.791,0,0,0,1.013-.021,1.989,1.989,0,0,1,.744-.647,4.7,4.7,0,0,1,2.4-.582,3.645,3.645,0,0,1,2.364.844,2.654,2.654,0,0,1,.625.762,1.389,1.389,0,0,1,.178.634,2.626,2.626,0,0,1-.269,1.24,2.506,2.506,0,0,1-.478.642,5.366,5.366,0,0,1-1.167.835c-.458.258-.952.486-1.451.761a4.494,4.494,0,0,0-1.617,1.449,3.922,3.922,0,0,0-.507,1.126,4.785,4.785,0,0,0-.162,1.267v.844a.792.792,0,0,0,.791.791h1.905a.791.791,0,0,0,.791-.791v-.844a1.3,1.3,0,0,1,.038-.343.421.421,0,0,1,.1-.191,1.347,1.347,0,0,1,.354-.258c.286-.16.745-.377,1.266-.659a8.419,8.419,0,0,0,2.525-1.958,5.831,5.831,0,0,0,.992-1.71,6.322,6.322,0,0,0,.375-2.2,4.86,4.86,0,0,0-.575-2.251,6.354,6.354,0,0,0-2.418-2.487,7.2,7.2,0,0,0-3.66-.988,8.2,8.2,0,0,0-4.13,1.04,4.616,4.616,0,0,0-1.514,1.307.791.791,0,0,0,.022,1.216Z" transform="translate(-165.698 -120.261)" fill="#4b4b4b"/>
</svg>
