<svg xmlns="http://www.w3.org/2000/svg" width="32.477" height="39.692" viewBox="0 0 32.477 39.692">
  <g id="current_place" data-name="current place" transform="translate(752.313 -1869.243)">
    <g id="グループ_132" data-name="グループ 132" transform="translate(-752.314 1869.243)">
      <path id="合体_5" data-name="合体 5" d="M15.83,39.692c-.01-.007-1.026-.713-2.5-1.933-.872-.719-1.734-1.475-2.562-2.248-1.036-.965-2.022-1.958-2.93-2.952a36.4,36.4,0,0,1-5.451-7.568A22.422,22.422,0,0,1,.619,20.6a16.016,16.016,0,0,1-.065-8.583A16.122,16.122,0,0,1,1.992,8.444,16.338,16.338,0,0,1,4.2,5.348,16.541,16.541,0,0,1,7.059,2.841,15.987,15.987,0,0,1,11.245.779,16.238,16.238,0,0,1,16.034,0V.012Q16.349,0,16.668,0A15.809,15.809,0,0,1,32.477,15.809q0,.354-.015.7h.015v.009a16.4,16.4,0,0,1-.779,4.621,22.421,22.421,0,0,1-1.915,4.327,36.39,36.39,0,0,1-5.712,7.373c-.943.961-1.963,1.919-3.032,2.848-.855.743-1.743,1.469-2.639,2.157-1.521,1.168-2.56,1.838-2.57,1.844h0Z" transform="translate(0 0)" fill="#a5a5a5"/>
    </g>
    <g id="楕円形_26" data-name="楕円形 26" transform="translate(-740.962 1878.356)" fill="#fff" stroke="#fafafa" stroke-width="1">
      <circle cx="4.889" cy="4.889" r="4.889" stroke="none"/>
      <circle cx="4.889" cy="4.889" r="4.389" fill="none"/>
    </g>
  </g>
</svg>
