<svg xmlns="http://www.w3.org/2000/svg" width="22.939" height="30.253" viewBox="0 0 22.939 30.253">
  <g id="date" transform="translate(-61.893 0)">
    <path id="パス_185" data-name="パス 185" d="M98.262,128.868a2.269,2.269,0,1,0-2.268-2.268A2.269,2.269,0,0,0,98.262,128.868Z" transform="translate(-32.086 -116.985)" fill="#a5a5a5"/>
    <path id="パス_186" data-name="パス 186" d="M321.759,126.6a2.269,2.269,0,1,0,2.269-2.269A2.269,2.269,0,0,0,321.759,126.6Z" transform="translate(-244.511 -116.985)" fill="#a5a5a5"/>
    <path id="パス_187" data-name="パス 187" d="M83.587,225.078a.909.909,0,0,0,.214-.579v-7.241a2.258,2.258,0,0,0-2.056-2.179H78.237a2.788,2.788,0,0,0-2.433,1.706l-2.956,4.628-2.957-4.628c-.669-1.032-1.257-1.706-2.462-1.706H63.92a2.232,2.232,0,0,0-2.027,2.179V224.5a.971.971,0,0,0,.995.945h.695l.378,6.174a1.034,1.034,0,0,0,1.06,1.005h2.314a1.034,1.034,0,0,0,1.06-1.005l.377-6.174.167-5.807,3.223,4.138a.806.806,0,0,0,.678.328.737.737,0,0,0,.695-.328l3.223-4.138.1,3.324c-.451.523-2.492,3.023-2.744,5.584h3.3l.5,3.21a.754.754,0,0,0,.772.734H80.36a.754.754,0,0,0,.772-.734l.5-3.21h3.2A8.923,8.923,0,0,0,83.587,225.078Z" transform="translate(0 -202.371)" fill="#a5a5a5"/>
    <path id="パス_188" data-name="パス 188" d="M170.143,8.761c.07.066.053.065.053.065a.169.169,0,0,0,.129.064h0a.168.168,0,0,0,.129-.064s-.016,0,.053-.065c1.991-1.923,4.9-3.111,4.9-5.686,0-2-1.181-3.1-2.609-3.076a2.461,2.461,0,0,0-2.475,2.122A2.461,2.461,0,0,0,167.85,0c-1.428-.028-2.609,1.071-2.609,3.076C165.241,5.65,168.153,6.839,170.143,8.761Z" transform="translate(-97.241 0)" fill="#a5a5a5"/>
  </g>
</svg>
