<svg xmlns="http://www.w3.org/2000/svg" width="35.372" height="35.371" viewBox="0 0 35.372 35.371">
  <path id="favorite" d="M19.048,4.119a1.758,1.758,0,0,1,3.275,0L25.984,14.26a1.751,1.751,0,0,0,1.638,1.119h9A1.722,1.722,0,0,1,37.7,18.462l-6.4,5.76a1.712,1.712,0,0,0-.569,1.931l2.338,9.909A1.743,1.743,0,0,1,30.4,38.041l-8.7-5.518a1.769,1.769,0,0,0-2.034,0l-8.7,5.518a1.743,1.743,0,0,1-2.667-1.979l2.338-9.909a1.712,1.712,0,0,0-.569-1.931l-6.4-5.76A1.722,1.722,0,0,1,4.751,15.38h9a1.749,1.749,0,0,0,1.638-1.119L19.046,4.119Z" transform="translate(-2.999 -3)" fill="#a5a5a5"/>
</svg>
