<svg xmlns="http://www.w3.org/2000/svg" width="40.29" height="40.34" viewBox="0 0 40.29 40.34">
  <g id="Icon_akar-thumbs-up" data-name="Icon akar-thumbs-up" transform="translate(-1.492 -1.486)" opacity="0.4">
    <path id="パス_136" data-name="パス 136" d="M20.925,10.058l.429-4.421a2.843,2.843,0,0,1,3.5-2.549,5.827,5.827,0,0,1,4.292,5.681v5.664a4.927,4.927,0,0,0,.272,2.351,1.884,1.884,0,0,0,.621.644,4.5,4.5,0,0,0,2.277.282h.739c3.178,0,4.766,0,5.744.728a3.876,3.876,0,0,1,1.456,2.254c.272,1.213-.338,2.73-1.56,5.761l-.608,1.512a6.086,6.086,0,0,0-.422,2.762A8.73,8.73,0,0,1,28.65,40.31L9.2,39.192c-2.126-.121-3.187-.183-4.147-1.032s-1.142-1.724-1.5-3.473a26.731,26.731,0,0,1,.1-11.266A4.413,4.413,0,0,1,8.7,20.137,11.015,11.015,0,0,0,20.925,10.06Z" transform="translate(0 0)" fill="none" stroke="#fff" stroke-linecap="round" stroke-linejoin="round" stroke-width="3"/>
    <path id="パス_137" data-name="パス 137" d="M10.782,17.25l-.256.853a27.96,27.96,0,0,0,.256,16.876" transform="translate(1.55 3.479)" fill="none" stroke="#fff" stroke-linecap="round" stroke-linejoin="round" stroke-width="3"/>
  </g>
</svg>
