<svg xmlns="http://www.w3.org/2000/svg" width="15.553" height="30.253" viewBox="0 0 15.553 30.253">
  <g id="guide2" transform="translate(-124.394)">
    <path id="パス_189" data-name="パス 189" d="M183.613,5.055a2.527,2.527,0,1,0-2.528-2.527A2.527,2.527,0,0,0,183.613,5.055Z" transform="translate(-53.341)" fill="#a5a5a5"/>
    <path id="パス_190" data-name="パス 190" d="M138.838,103.526h-2.056l-.633-3.345a2.893,2.893,0,0,0-2.557-2.557h-6.641a2.842,2.842,0,0,0-2.557,2.557v8.5a1.109,1.109,0,1,0,2.218,0v-6.985h.511v18.96a1.457,1.457,0,0,0,2.913,0v-11h.471v11a1.457,1.457,0,0,0,2.913,0v-18.96h.512l.452,2.892a1.371,1.371,0,0,0,1.355,1.16h3.1a1.109,1.109,0,0,0,0-2.217Z" transform="translate(0 -91.855)" fill="#a5a5a5"/>
  </g>
</svg>
