<svg xmlns="http://www.w3.org/2000/svg" width="22.157" height="29" viewBox="0 0 22.157 29">
  <g id="guide1" transform="translate(-60.405)">
    <path id="パス_216" data-name="パス 216" d="M213.427,238.027c.278.929,1.727,1.065,2.593.252-1.293.064-1.433-.9-2.579-.911v0h-.027v0c-1.147.016-1.287.975-2.579.911C211.7,239.092,213.149,238.957,213.427,238.027Z" transform="translate(-141.909 -223.922)" fill="#a5a5a5"/>
    <path id="パス_217" data-name="パス 217" d="M237.253,387.545h-.716l-.391,3.1,1.107,2.151,1.107-2.151-.391-3.1Z" transform="translate(-165.787 -365.594)" fill="#a5a5a5"/>
    <path id="パス_218" data-name="パス 218" d="M81.815,22.9a5.506,5.506,0,0,0-2.754-2c-.5-.188-.988-.326-1.418-.444s-.8-.215-1.054-.31a5.743,5.743,0,0,1-1.226-.6,1.539,1.539,0,0,1-.358-.328.4.4,0,0,1-.094-.232V17.345a6.62,6.62,0,0,0,1.7-3.128,2.106,2.106,0,0,0,.341-.188,2.277,2.277,0,0,0,.705-.839,7.956,7.956,0,0,0,.563-1.513,2.326,2.326,0,0,0,.1-.631,1.115,1.115,0,0,0-.206-.683.866.866,0,0,0-.09-.1,7.508,7.508,0,0,0,.717-3.121,5.582,5.582,0,0,0-.7-2.777A4.154,4.154,0,0,0,76.1,2.589a1.766,1.766,0,0,1-.26-.16c-.213-.148-.5-.377-.847-.632A11.326,11.326,0,0,0,73.075.615,6.1,6.1,0,0,0,70.492,0c-.119,0-.238,0-.358.012A6.5,6.5,0,0,0,68.24.4a5,5,0,0,0-1.927,1.35c-.526.568-.991,1.224-1.569,1.945a3.953,3.953,0,0,0-.776,2.521A9.471,9.471,0,0,0,64.423,8.9c.171.561.357,1.049.5,1.4a.88.88,0,0,0-.108.12,1.147,1.147,0,0,0-.166.626,2.323,2.323,0,0,0,.1.631,6.127,6.127,0,0,0,.772,1.855,2.034,2.034,0,0,0,.5.5,2.1,2.1,0,0,0,.341.188,6.62,6.62,0,0,0,1.7,3.128v1.644a.4.4,0,0,1-.1.234,2.221,2.221,0,0,1-.653.514,5.8,5.8,0,0,1-.915.41c-.343.121-.894.248-1.513.425a7.667,7.667,0,0,0-2.921,1.422,4.278,4.278,0,0,0-1.113,1.462,5.053,5.053,0,0,0-.433,2.139q0,.289.026.6a.754.754,0,0,0,.132.359,1.724,1.724,0,0,0,.49.453,7.08,7.08,0,0,0,1.488.7A27.953,27.953,0,0,0,71.484,29a30.4,30.4,0,0,0,7.747-.927,11.921,11.921,0,0,0,2.267-.825,3.386,3.386,0,0,0,.676-.438,1.32,1.32,0,0,0,.231-.257.759.759,0,0,0,.132-.359c.017-.206.026-.4.026-.6A4.74,4.74,0,0,0,81.815,22.9ZM67.149,13.83l-.043-.246L66.87,13.5a1.515,1.515,0,0,1-.364-.177,1.418,1.418,0,0,1-.436-.536,7.135,7.135,0,0,1-.5-1.346,1.483,1.483,0,0,1-.067-.395.3.3,0,0,1,.031-.162c.01-.014.014-.02.05-.037l-.134-.329h0l.09.221h0a.687.687,0,0,1,.255-.04,2.137,2.137,0,0,1,.545.086c.08.022.148.044.194.061l.053.019.013.005h0l.527.213-.1-.559s-.022-.119-.054-.312c-.049-.289-.123-.741-.184-1.191a10.212,10.212,0,0,1-.108-1.162,3.455,3.455,0,0,1,.081-.839,1,1,0,0,1,.145-.34.627.627,0,0,1,.348-.239,2.407,2.407,0,0,1,.7-.078c.728,0,1.813.142,3.263.143,1.56,0,2.794-.2,3.635-.2a2.8,2.8,0,0,1,.679.066.789.789,0,0,1,.54.379,2.241,2.241,0,0,1,.2,1.106,13.519,13.519,0,0,1-.173,1.607c-.044.289-.087.554-.12.746s-.054.312-.054.312l-.1.559.527-.213h0a2.586,2.586,0,0,1,.805-.172.763.763,0,0,1,.213.026l.089-.3-.121.413c.056.018.067.031.077.042a.274.274,0,0,1,.034.166,1.484,1.484,0,0,1-.067.4,5.377,5.377,0,0,1-.645,1.591,1.167,1.167,0,0,1-.286.291,1.515,1.515,0,0,1-.364.177l-.235.084-.044.246a5.829,5.829,0,0,1-1.656,3.062l-.11.123v1.974c0,.009,0,.018,0,.027l-2.269,1.468h-.7l-2.177-1.408c0-.029.009-.057.009-.087V17.015l-.11-.123A5.829,5.829,0,0,1,67.149,13.83Zm7.48,6.232-1.324,1.986-1.082-1.154.014-.236,1.9-1.232a1.409,1.409,0,0,0,.171.306A2.125,2.125,0,0,0,74.629,20.061Zm-3.918.867-1.049,1.119-1.326-1.989a2.172,2.172,0,0,0,.3-.316,1.494,1.494,0,0,0,.161-.27L70.7,20.7Zm.84,7.211h-.068l-.1,0-3.865-7.543a4.878,4.878,0,0,0,.509-.3l1.585,2.377,1.133-1.208.007.126h1.432l.01-.16,1.165,1.243L74.94,20.3q.129.085.265.163c.071.04.148.074.222.111Z" transform="translate(0)" fill="#a5a5a5"/>
  </g>
</svg>
