<svg xmlns="http://www.w3.org/2000/svg" width="24.982" height="24.982" viewBox="0 0 24.982 24.982">
  <path id="Icon_fa-regular-pen-to-square" data-name="Icon fa-regular-pen-to-square" d="M21.684,2.979l.595.595a1.175,1.175,0,0,1,0,1.667L20.848,6.677,18.581,4.41l1.431-1.431a1.175,1.175,0,0,1,1.667,0Zm-11.368,9.7,6.6-6.6,2.267,2.267-6.6,6.6a1.176,1.176,0,0,1-.511.3l-2.876.821.821-2.876a1.176,1.176,0,0,1,.3-.511ZM18.345,1.312l-9.7,9.7a3.513,3.513,0,0,0-.9,1.529L6.338,17.455a1.18,1.18,0,0,0,1.46,1.46l4.917-1.406a3.552,3.552,0,0,0,1.529-.9l9.7-9.7a3.54,3.54,0,0,0,0-5.005l-.595-.595a3.54,3.54,0,0,0-5.005,0ZM4.327,3.23A4.327,4.327,0,0,0,0,7.557V20.931a4.327,4.327,0,0,0,4.327,4.327H17.7a4.327,4.327,0,0,0,4.327-4.327V15.424a1.18,1.18,0,1,0-2.36,0v5.507A1.966,1.966,0,0,1,17.7,22.9H4.327A1.966,1.966,0,0,1,2.36,20.931V7.557A1.966,1.966,0,0,1,4.327,5.59H9.834a1.18,1.18,0,1,0,0-2.36Z" transform="translate(0 -0.276)" fill="#a5a5a5"/>
</svg>
