<svg xmlns="http://www.w3.org/2000/svg" width="99.392" height="98.106" viewBox="0 0 99.392 98.106">
  <g id="お茶碗と箸" transform="translate(0 -3.313)">
    <path id="パス_146" data-name="パス 146" d="M30.922,429.382h87.39v-7.413l-87.39,1.753Z" transform="translate(-24.919 -337.384)" fill="#a5a5a5"/>
    <path id="パス_147" data-name="パス 147" d="M30.922,476.144l87.39,1.756v-7.416H30.922Z" transform="translate(-24.919 -376.481)" fill="#a5a5a5"/>
    <path id="パス_148" data-name="パス 148" d="M29.719,68.8v4.274c0,4.435,8.945,8.032,19.977,8.032s19.977-3.6,19.977-8.032V68.8A49.7,49.7,0,0,0,99.392,23.29c0-11.032-22.248-19.977-49.7-19.977S0,12.258,0,23.29A49.7,49.7,0,0,0,29.719,68.8ZM8.12,23.29c0-.434,1.744-3.491,9.464-6.591,8.326-3.346,20.028-5.266,32.113-5.266s23.786,1.92,32.116,5.266c7.716,3.1,9.46,6.157,9.46,6.591s-1.744,3.488-9.46,6.591C73.482,33.226,61.78,35.146,49.7,35.146s-23.786-1.92-32.113-5.266C9.864,26.778,8.12,23.723,8.12,23.29Z" fill="#a5a5a5"/>
  </g>
</svg>
