<svg xmlns="http://www.w3.org/2000/svg" width="43" height="43.533" viewBox="0 0 43 43.533">
  <g id="main" transform="translate(-39.5 -764.125)">
    <path id="パス_23" data-name="パス 23" d="M44.5,40.229V25.267a8.889,8.889,0,0,0-2.767-6.444L27.562,5.362a4.444,4.444,0,0,0-6.122,0L7.267,18.822A8.889,8.889,0,0,0,4.5,25.267V40.229a4.444,4.444,0,0,0,4.444,4.444H40.056A4.444,4.444,0,0,0,44.5,40.229Z" transform="translate(36.5 761.485)" fill="none" stroke="#eeee54" stroke-linecap="round" stroke-linejoin="round" stroke-width="3"/>
    <path id="パス_24" data-name="パス 24" d="M13.5,23.944A4.444,4.444,0,0,1,17.944,19.5h4.444a4.444,4.444,0,0,1,4.444,4.444V37.278H13.5Z" transform="translate(40.833 766.392)" fill="none" stroke="#eeee54" stroke-linecap="round" stroke-linejoin="round" stroke-width="3"/>
  </g>
</svg>
