<svg xmlns="http://www.w3.org/2000/svg" width="40" height="39.57" viewBox="0 0 40 39.57">
  <g id="map" transform="translate(-3 -3.438)">
    <path id="パス_128" data-name="パス 128" d="M15.534,8.119,9.91,6.243a4.111,4.111,0,0,0-5.41,3.9V34.365a4.111,4.111,0,0,0,2.813,3.9l8.221,2.74a4.111,4.111,0,0,0,2.6,0l9.735-3.244a4.111,4.111,0,0,1,2.6,0l5.624,1.875a4.111,4.111,0,0,0,5.41-3.9V11.515a4.111,4.111,0,0,0-2.81-3.9l-8.222-2.74a4.111,4.111,0,0,0-2.6,0L18.13,8.117a4.111,4.111,0,0,1-2.6,0Z" transform="translate(0 0.283)" fill="none" stroke="#a5a5a5" stroke-linecap="round" stroke-linejoin="round" stroke-width="3"/>
    <path id="パス_129" data-name="パス 129" d="M13.5,8.611V41.5m12.333-37V37.389" transform="translate(3.333 0)" fill="none" stroke="#a5a5a5" stroke-linejoin="round" stroke-width="3"/>
  </g>
</svg>
