<svg xmlns="http://www.w3.org/2000/svg" width="22.85" height="27.927" viewBox="0 0 22.85 27.927">
  <g id="グループ_301" data-name="グループ 301" transform="translate(752.314 -1874.243)">
    <g id="グループ_132" data-name="グループ 132" transform="translate(-752.314 1874.243)">
      <path id="合体_5" data-name="合体 5" d="M11.138,27.926c-.007,0-.722-.5-1.762-1.36-.613-.506-1.22-1.038-1.8-1.581-.729-.679-1.422-1.378-2.062-2.077a25.609,25.609,0,0,1-3.835-5.324A15.775,15.775,0,0,1,.435,14.494,11.268,11.268,0,0,1,.39,8.455,11.343,11.343,0,0,1,1.4,5.941,11.5,11.5,0,0,1,2.954,3.763,11.638,11.638,0,0,1,4.967,2,11.248,11.248,0,0,1,7.912.548,11.425,11.425,0,0,1,11.281,0V.009Q11.5,0,11.727,0A11.123,11.123,0,0,1,22.85,11.123q0,.249-.011.5h.011v.006a11.541,11.541,0,0,1-.548,3.252,15.775,15.775,0,0,1-1.348,3.044,25.6,25.6,0,0,1-4.019,5.187c-.663.676-1.381,1.35-2.133,2-.6.523-1.226,1.033-1.857,1.518-1.07.822-1.8,1.293-1.808,1.3h0Z" transform="translate(0 0)" fill="#a5a5a5"/>
    </g>
    <g id="楕円形_26" data-name="楕円形 26" transform="translate(-744.327 1880.654)" fill="#fff" stroke="#fafafa" stroke-width="1">
      <circle cx="3.44" cy="3.44" r="3.44" stroke="none"/>
      <circle cx="3.44" cy="3.44" r="2.94" fill="none"/>
    </g>
  </g>
</svg>
