<svg xmlns="http://www.w3.org/2000/svg" width="42.682" height="36.661" viewBox="0 0 42.682 36.661">
  <g id="message" transform="translate(-130.296)">
    <path id="パス_236" data-name="パス 236" d="M258.788,87.4l-.6,2.217a9.821,9.821,0,0,1,4.657,2.715,6.166,6.166,0,0,1,1.74,4.2A5.967,5.967,0,0,1,263.443,100a8.623,8.623,0,0,1-3.145,2.648l-.97.5,1.257,2.812a50.222,50.222,0,0,1-9.134-2.6l-.036-.014-.036-.011a8.894,8.894,0,0,1-5.22-3.977l-2.015,1.106a11.147,11.147,0,0,0,6.475,5.037h0a49.622,49.622,0,0,0,11.74,3.033l2,.221-2.064-4.615a10.528,10.528,0,0,0,3.031-2.82,8.248,8.248,0,0,0,1.556-4.78,8.472,8.472,0,0,0-2.345-5.755A12.083,12.083,0,0,0,258.788,87.4Z" transform="translate(-93.9 -72.091)" fill="#efefef"/>
    <path id="パス_237" data-name="パス 237" d="M160.229,20.9a11.563,11.563,0,0,0,2.993-7.633,11.1,11.1,0,0,0-1.339-5.258,14.456,14.456,0,0,0-6.02-5.8A19.379,19.379,0,0,0,146.758,0a18.64,18.64,0,0,0-11.54,3.8,13.532,13.532,0,0,0-3.582,4.211,11.1,11.1,0,0,0-1.339,5.258,11.3,11.3,0,0,0,2.132,6.537,14.75,14.75,0,0,0,4.541,4.124l-2.764,6.182,2-.221a70.443,70.443,0,0,0,16.628-4.3A16.427,16.427,0,0,0,160.229,20.9Zm-8.2,2.537-.036.014a71.158,71.158,0,0,1-14.031,3.879l1.976-4.418-.97-.5a12.792,12.792,0,0,1-4.665-3.934,8.987,8.987,0,0,1-1.713-5.215,8.79,8.79,0,0,1,1.067-4.175,12.156,12.156,0,0,1,5.076-4.857,17.04,17.04,0,0,1,8.02-1.933,16.37,16.37,0,0,1,10.117,3.3,11.261,11.261,0,0,1,2.98,3.491,8.811,8.811,0,0,1,1.069,4.175,9.246,9.246,0,0,1-2.425,6.12,14.161,14.161,0,0,1-6.429,4.04Z" fill="#efefef"/>
    <path id="パス_238" data-name="パス 238" d="M178.784,67.362a1.788,1.788,0,1,0,1.788,1.788A1.788,1.788,0,0,0,178.784,67.362Z" transform="translate(-38.518 -55.56)" fill="#efefef"/>
    <path id="パス_239" data-name="パス 239" d="M218.134,67.362a1.788,1.788,0,1,0,1.788,1.788A1.789,1.789,0,0,0,218.134,67.362Z" transform="translate(-70.973 -55.56)" fill="#efefef"/>
    <path id="パス_240" data-name="パス 240" d="M257.491,67.362a1.788,1.788,0,1,0,1.789,1.788A1.788,1.788,0,0,0,257.491,67.362Z" transform="translate(-103.435 -55.56)" fill="#efefef"/>
  </g>
</svg>
