<svg xmlns="http://www.w3.org/2000/svg" width="38.482" height="43.609" viewBox="0 0 38.482 43.609">
  <g id="Icon_akar-person" data-name="Icon akar-person" transform="translate(-3.392 -1.5)" opacity="0.5">
    <path id="パス_49" data-name="パス 49" d="M30.8,13.152A10.152,10.152,0,1,1,20.652,3,10.152,10.152,0,0,1,30.8,13.152Z" transform="translate(1.981 0)" fill="none" stroke="#fff" stroke-width="3"/>
    <path id="パス_50" data-name="パス 50" d="M32.786,21H33.5a6.091,6.091,0,0,1,6.043,5.336l.794,6.343a4.061,4.061,0,0,1-4.03,4.564H8.96a4.061,4.061,0,0,1-4.03-4.564l.792-6.343A6.091,6.091,0,0,1,11.768,21h.713" transform="translate(0 6.366)" fill="none" stroke="#fff" stroke-linecap="round" stroke-linejoin="round" stroke-width="3"/>
  </g>
</svg>
