<svg xmlns="http://www.w3.org/2000/svg" width="40.054" height="40.054" viewBox="0 0 40.054 40.054">
  <g id="news" transform="translate(1.5 1.5)">
    <path id="パス_198" data-name="パス 198" d="M7.5,41.554H32.2a8.234,8.234,0,0,0,8.234-8.234V8.617A4.117,4.117,0,0,0,36.32,4.5H15.734a4.117,4.117,0,0,0-4.117,4.117V35.378C11.617,38.789,10.911,41.554,7.5,41.554Z" transform="translate(-3.383 -4.5)" fill="none" stroke="#4b4b4b" stroke-linecap="round" stroke-linejoin="round" stroke-width="3"/>
    <path id="パス_199" data-name="パス 199" d="M4.5,16.117A4.117,4.117,0,0,1,8.617,12h4.117V33.615c0,2.841-1.276,5.146-4.117,5.146S4.5,36.456,4.5,33.615Z" transform="translate(-4.5 -1.707)" fill="none" stroke="#4b4b4b" stroke-linecap="round" stroke-linejoin="round" stroke-width="3"/>
    <path id="パス_200" data-name="パス 200" d="M20.617,12.559A2.059,2.059,0,1,1,18.559,10.5,2.059,2.059,0,0,1,20.617,12.559Z" transform="translate(-0.031 -2.266)" fill="none" stroke="#4b4b4b" stroke-linecap="round" stroke-width="3"/>
    <path id="パス_201" data-name="パス 201" d="M16.5,21H28.851M16.5,27.176h6.176" transform="translate(-0.031 1.644)" fill="none" stroke="#4b4b4b" stroke-linecap="round" stroke-width="3"/>
  </g>
</svg>
