<svg xmlns="http://www.w3.org/2000/svg" width="35.758" height="45.157" viewBox="0 0 35.758 45.157">
  <g id="PIN" transform="translate(-99.801 -61.709) rotate(30)" opacity="0.4">
    <path id="パス_224" data-name="パス 224" d="M217.6,269.476a5.657,5.657,0,0,1-2.075-.4l-.111-.044V282.5a1.679,1.679,0,0,0,.335,1.027l.938,1.14a1.057,1.057,0,0,0,1.744,0l.942-1.145a1.679,1.679,0,0,0,.333-1.025V269.07l-.11.041A5.662,5.662,0,0,1,217.6,269.476Z" transform="translate(-76.618 -244.336)" fill="#fff"/>
    <path id="パス_225" data-name="パス 225" d="M144.024,0a13.089,13.089,0,1,0,13.088,13.089A13.1,13.1,0,0,0,144.024,0Zm-4.053,13.191a3.806,3.806,0,1,1,3.806-3.806A3.81,3.81,0,0,1,139.971,13.191Z" transform="translate(-2.316 -3.003)" fill="#fff"/>
  </g>
</svg>
