<svg xmlns="http://www.w3.org/2000/svg" width="104.015" height="84.921" viewBox="0 0 104.015 84.921">
  <g id="ラーメンのフリーイラスト3" transform="translate(0 -46.994)">
    <path id="パス_150" data-name="パス 150" d="M178.711,309.918a1.743,1.743,0,1,0,1.49,1.964A1.744,1.744,0,0,0,178.711,309.918Z" transform="translate(-140.827 -209.497)" fill="#a5a5a5"/>
    <path id="パス_151" data-name="パス 151" d="M141.4,302.967a1.744,1.744,0,1,0,1.283,2.106A1.743,1.743,0,0,0,141.4,302.967Z" transform="translate(-110.959 -203.931)" fill="#a5a5a5"/>
    <path id="パス_152" data-name="パス 152" d="M330.2,307.955a1.744,1.744,0,1,0,2.01,1.429A1.74,1.74,0,0,0,330.2,307.955Z" transform="translate(-261.964 -207.926)" fill="#a5a5a5"/>
    <path id="パス_153" data-name="パス 153" d="M368.167,302.938A1.744,1.744,0,1,0,366,301.759,1.741,1.741,0,0,0,368.167,302.938Z" transform="translate(-291.59 -201.225)" fill="#a5a5a5"/>
    <path id="パス_154" data-name="パス 154" d="M216.531,313.541a1.743,1.743,0,1,0,1.64,1.84A1.744,1.744,0,0,0,216.531,313.541Z" transform="translate(-171.072 -212.395)" fill="#a5a5a5"/>
    <path id="パス_155" data-name="パス 155" d="M292.508,312.628a1.743,1.743,0,1,0,1.884,1.592A1.742,1.742,0,0,0,292.508,312.628Z" transform="translate(-231.81 -211.664)" fill="#a5a5a5"/>
    <path id="パス_156" data-name="パス 156" d="M254.537,314.4a1.744,1.744,0,1,0,1.764,1.722A1.744,1.744,0,0,0,254.537,314.4Z" transform="translate(-201.453 -213.078)" fill="#a5a5a5"/>
    <path id="パス_157" data-name="パス 157" d="M340.45,154.888c-.974.334-2.133.807-3.362,1.373a55.287,55.287,0,0,0-7.445,4.152A23.541,23.541,0,0,0,326.377,163q1.672,1.771,3.338,3.732c.523-.463,1.091-.924,1.7-1.385,1.13-.855,2.389-1.707,3.717-2.53a70.6,70.6,0,0,1,8.238-4.355c1.01-.446,1.977-.84,2.882-1.173a36.013,36.013,0,0,0-5.063-2.63C340.955,154.722,340.712,154.8,340.45,154.888Z" transform="translate(-260.072 -85.788)" fill="#a5a5a5"/>
    <path id="パス_158" data-name="パス 158" d="M262.816,129.891a92.494,92.494,0,0,0-11.856-.748c-.43,0-.856,0-1.283.009,1.613,1.128,3.665,2.641,5.973,4.537.21.171.427.353.64.532.385-.341.8-.679,1.241-1.016.805-.61,1.7-1.212,2.638-1.8C261.025,130.88,261.921,130.369,262.816,129.891Z" transform="translate(-198.954 -65.46)" fill="#a5a5a5"/>
    <path id="パス_159" data-name="パス 159" d="M311.5,139.416q-2.925-.913-6.208-1.6c-.61.236-1.28.518-1.98.84a45.128,45.128,0,0,0-6.09,3.4c-.7.467-1.325.937-1.857,1.378,1.253,1.122,2.554,2.342,3.873,3.65a21.672,21.672,0,0,1,2.142-1.834c.964-.731,2.043-1.456,3.173-2.157A59.47,59.47,0,0,1,311.5,139.416Z" transform="translate(-235.358 -72.371)" fill="#a5a5a5"/>
    <path id="パス_160" data-name="パス 160" d="M173.319,448.4l0,0-.011,0Z" transform="translate(-138.096 -319.851)" fill="#a5a5a5"/>
    <path id="パス_161" data-name="パス 161" d="M102.735,65.589a17.269,17.269,0,0,0-2.884-4.215,30.481,30.481,0,0,0-8.01-6.012A66.02,66.02,0,0,0,74.3,49.234a107.857,107.857,0,0,0-22.3-2.24,109.813,109.813,0,0,0-19.632,1.714C23.285,50.375,15.479,53.134,9.729,56.8h0a25.2,25.2,0,0,0-6.968,6.3A15.16,15.16,0,0,0,.733,66.91,12.629,12.629,0,0,0,0,71.1H0v.022a12.819,12.819,0,0,0,1.28,5.5h0a16.787,16.787,0,0,0,2.25,3.479l25.839,35.38v5.459a6.574,6.574,0,0,0,.706,2.913v0a8.315,8.315,0,0,0,1.466,2.048l0,0a13.886,13.886,0,0,0,3.666,2.631l.011.006a29.073,29.073,0,0,0,7.459,2.485,47.027,47.027,0,0,0,9.269.886,47.781,47.781,0,0,0,8.154-.678,35.458,35.458,0,0,0,5.291-1.322,18.88,18.88,0,0,0,6.168-3.269l0,0a9.229,9.229,0,0,0,2.082-2.464l0,0a6.577,6.577,0,0,0,.877-3.216V115.49l25.965-35.382c.264-.321.526-.651.775-.994a15.251,15.251,0,0,0,2.022-3.807,12.567,12.567,0,0,0,.73-4.113l0-.014v-.086A12.782,12.782,0,0,0,102.735,65.589ZM69.694,120.935a1.72,1.72,0,0,1-.2.769,3.559,3.559,0,0,1-.631.859,9.131,9.131,0,0,1-2.4,1.686,24.307,24.307,0,0,1-6.213,2.049,42.257,42.257,0,0,1-8.308.789,43.139,43.139,0,0,1-7.331-.605,30.537,30.537,0,0,1-4.567-1.136,14.221,14.221,0,0,1-4.588-2.375,4.386,4.386,0,0,1-1.006-1.155,1.765,1.765,0,0,1-.258-.88v-3.793a26.259,26.259,0,0,0,7.016,2.636,47.249,47.249,0,0,0,10.735,1.175,41.64,41.64,0,0,0,15.32-2.62,20.071,20.071,0,0,0,2.428-1.191v3.794Zm0-7.029c-.186.146-.385.293-.6.437a21.882,21.882,0,0,1-7.043,2.806,44.641,44.641,0,0,1-10.11,1.1,39,39,0,0,1-14.3-2.419,14.48,14.48,0,0,1-3.467-1.94L14.518,86.968a68.293,68.293,0,0,0,15.4,5.069,106.845,106.845,0,0,0,22.09,2.219,108.8,108.8,0,0,0,19.464-1.7,71.342,71.342,0,0,0,17.976-5.566ZM98.361,74.553a12.294,12.294,0,0,1-2.088,3.026,20.857,20.857,0,0,1-3.059,2.7,11.082,11.082,0,0,0-3.657-6.2l-.015,0c-.448.111-.974.269-1.556.469a43.108,43.108,0,0,0-4,1.63,65.084,65.084,0,0,0-8.824,4.923,31.114,31.114,0,0,0-3.317,2.537q1.591,2.021,3.122,4.227-.829.2-1.676.377c-.673.143-1.358.275-2.049.405A95.4,95.4,0,0,0,54.611,71.027a78.369,78.369,0,0,0-9.377-6.757,1.7,1.7,0,0,1-.391-.318q-2.9.218-5.654.608c1.649,1.145,3.738,2.677,6.084,4.6A100.047,100.047,0,0,1,64.358,89.684c-1.313.149-2.644.282-4,.385A97.5,97.5,0,0,0,43.2,71.962a86.088,86.088,0,0,0-9.032-6.533,64.554,64.554,0,0,0-7.475,2c1.628,1.046,3.753,2.5,6.171,4.345a94.181,94.181,0,0,1,18.445,18.6c-1.508-.009-3-.045-4.477-.113a85.952,85.952,0,0,0-5.826-6.623,1.93,1.93,0,0,1-.343.069,43.1,43.1,0,0,0-11.9,3.138c-.478.2-.952.4-1.418.605q-2.6-.672-4.972-1.477a53.49,53.49,0,0,1,15.5-5.407c-1.475-1.379-2.923-2.641-4.309-3.786a43.567,43.567,0,0,0-11.514,3.09,60.841,60.841,0,0,0-6.625,3.221q-1.659-.845-3.086-1.756c-.132-.086-.258-.173-.385-.258q1.321-.8,2.758-1.576a55.619,55.619,0,0,1,15.107-5.664A79.964,79.964,0,0,0,22.594,69C15.873,71.944,11.5,75.893,10.8,80.28a18.575,18.575,0,0,1-4.116-4A10.521,10.521,0,0,1,5.3,73.693a7.688,7.688,0,0,1-.454-2.584,7.973,7.973,0,0,1,.811-3.446,12.4,12.4,0,0,1,2.088-3.024,25.738,25.738,0,0,1,6.742-5.021,61.3,61.3,0,0,1,16.237-5.649,103.22,103.22,0,0,1,21.284-2.133A105.313,105.313,0,0,1,70.773,53.47c8.626,1.573,15.921,4.217,20.909,7.412a20.48,20.48,0,0,1,5.649,5.051,10.35,10.35,0,0,1,1.388,2.591,7.683,7.683,0,0,1,.454,2.584A7.95,7.95,0,0,1,98.361,74.553Z" fill="#a5a5a5"/>
  </g>
</svg>
