<svg xmlns="http://www.w3.org/2000/svg" width="42.807" height="42.808" viewBox="0 0 42.807 42.808">
  <g id="setting" transform="translate(-0.001 0)">
    <path id="パス_195" data-name="パス 195" d="M42,25.694l-3.261-2.576a2.157,2.157,0,0,1-.808-1.7V21.4a2.157,2.157,0,0,1,.808-1.705L42,17.115a2.127,2.127,0,0,0,.647-2.483l-1.433-3.459A2.127,2.127,0,0,0,39,9.874l-4.127.485A2.157,2.157,0,0,1,33.1,9.725l-.015-.015a2.157,2.157,0,0,1-.631-1.775l.485-4.127a2.127,2.127,0,0,0-1.3-2.213L28.177.163a2.127,2.127,0,0,0-2.483.647L23.118,4.071a2.157,2.157,0,0,1-1.7.808H21.4a2.157,2.157,0,0,1-1.705-.808L17.115.809A2.127,2.127,0,0,0,14.632.163L11.173,1.6a2.127,2.127,0,0,0-1.3,2.213l.485,4.127a2.157,2.157,0,0,1-.634,1.777l-.015.015a2.157,2.157,0,0,1-1.775.631L3.809,9.875a2.127,2.127,0,0,0-2.213,1.3L.163,14.632a2.127,2.127,0,0,0,.647,2.483l3.261,2.576a2.157,2.157,0,0,1,.808,1.7v.021a2.157,2.157,0,0,1-.808,1.705L.809,25.694a2.127,2.127,0,0,0-.647,2.483L1.6,31.635a2.127,2.127,0,0,0,2.213,1.3l4.127-.485a2.157,2.157,0,0,1,1.777.634l.015.015a2.158,2.158,0,0,1,.631,1.775L9.875,39a2.127,2.127,0,0,0,1.3,2.213l3.459,1.433A2.127,2.127,0,0,0,17.115,42l2.575-3.261a2.158,2.158,0,0,1,1.7-.808h.021a2.157,2.157,0,0,1,1.705.808L25.694,42a2.127,2.127,0,0,0,2.483.647l3.459-1.433A2.127,2.127,0,0,0,32.934,39l-.485-4.127a2.157,2.157,0,0,1,.634-1.777l.015-.015a2.157,2.157,0,0,1,1.775-.631L39,32.934a2.127,2.127,0,0,0,2.213-1.3l1.433-3.458A2.127,2.127,0,0,0,42,25.694Zm-18.48,1.872a6.5,6.5,0,1,1,3.519-8.5A6.5,6.5,0,0,1,23.519,27.566Z" transform="translate(0 0)" fill="#4b4b4b"/>
  </g>
</svg>
