<svg xmlns="http://www.w3.org/2000/svg" width="102.523" height="87.186" viewBox="0 0 102.523 87.186">
  <g id="鳥居のアイコン" transform="translate(0 -38.297)">
    <path id="パス_162" data-name="パス 162" d="M85.575,59.907l-.122-1.061-.1-.889h6.58V49.964h5.394l5.2-11.667H0L5.194,49.964h5.4v7.994h6.577l-.222,1.949h0l-1.63,14.314H2V86.239H13.951l-.16,1.414h0l-.081.707-3,26.394h0l-1.22,10.729H24.57l.876-10.729L27.6,88.361l.059-.707.116-1.414H74.746l.119,1.414.05.707,2.159,26.394h0l.879,10.729H93.037l-1.223-10.729h0l-3-26.394-.078-.707h0l-.038-.313-.125-1.1h11.952V74.221H87.205ZM56.487,57.958H72.431l.163,1.949,1.17,14.314H56.487V57.958ZM29.933,59.907l.16-1.949H46.037V74.221H28.76Z" fill="#a5a5a5"/>
  </g>
</svg>
