<svg xmlns="http://www.w3.org/2000/svg" width="17.009" height="26.5" viewBox="0 0 17.009 26.5">
  <g id="tap" transform="translate(-91.682)">
    <path id="パス_228" data-name="パス 228" d="M183.313,8.908l.005-1.522c-.024-.022-.049-.043-.072-.065a3.574,3.574,0,1,1,5.115-.071l0,1.576a4.8,4.8,0,1,0-5.052.082Z" transform="translate(-84.672)" fill="#5c5f5d"/>
    <path id="パス_229" data-name="パス 229" d="M106.219,77.481a25.3,25.3,0,0,1-1.934,2.009.97.97,0,0,1-1.64-.7l-.023-10.081v.183a1.454,1.454,0,0,0-2.907.041l-.024,7.306-5.918,1.531a3.449,3.449,0,0,0-1.908,4.277l1.48,5.551v2.889h9.6V87.6s4.964-7.489,5.475-8.213C109.337,78.09,107.74,75.808,106.219,77.481Z" transform="translate(0 -63.985)" fill="#5c5f5d"/>
  </g>
</svg>
