<svg xmlns="http://www.w3.org/2000/svg" width="11.824" height="15.084" viewBox="0 0 11.824 15.084">
  <g id="trush" transform="translate(-55.332)">
    <path id="パス_179" data-name="パス 179" d="M63.707,138.7a1.527,1.527,0,0,0,1.521,1.393H72.05a1.527,1.527,0,0,0,1.521-1.393l.755-9.9H62.952Zm7.088-7.156a.314.314,0,0,1,.627.038l-.3,5.958a.314.314,0,0,1-.627-.038Zm-2.47.019a.314.314,0,0,1,.628,0v5.958a.314.314,0,0,1-.628,0Zm-2.175-.313a.314.314,0,0,1,.332.294l.3,5.958a.314.314,0,0,1-.627.038l-.3-5.958A.314.314,0,0,1,66.151,131.249Z" transform="translate(-7.395 -125.008)" fill="#a5a5a5"/>
    <path id="パス_180" data-name="パス 180" d="M66.639,1.9s-1-.167-1.277-.25c-.245-.074-2.38-.4-2.38-.4L62.9.683A.775.775,0,0,0,62.147,0H60.341a.776.776,0,0,0-.755.683l-.08.569s-2.135.325-2.38.4c-.273.083-1.277.25-1.277.25a.722.722,0,0,0-.517.7V3.25H67.156V2.6A.722.722,0,0,0,66.639,1.9Zm-4.8-.757h-1.2a.192.192,0,1,1,0-.385h1.2a.192.192,0,1,1,0,.385Z" fill="#a5a5a5"/>
  </g>
</svg>
